<?xml version="1.0" standalone="no"?>
<!DOCTYPE svg PUBLIC "-//W3C//DTD SVG 20010904//EN"
 "http://www.w3.org/TR/2001/REC-SVG-20010904/DTD/svg10.dtd">
<svg version="1.0" xmlns="http://www.w3.org/2000/svg"
 width="430.000000pt" height="430.000000pt" viewBox="0 0 430.000000 430.000000"
 preserveAspectRatio="xMidYMid meet">

<g transform="translate(0.000000,430.000000) scale(0.100000,-0.100000)"
fill="#000000" stroke="none">
<path d="M1931 4289 c-517 -58 -977 -284 -1326 -651 -318 -335 -495 -687 -577
-1147 -32 -181 -32 -501 0 -682 65 -367 199 -679 410 -959 77 -102 268 -297
372 -380 288 -229 614 -373 999 -442 181 -32 501 -32 682 0 385 69 711 213
999 442 104 83 295 278 372 380 211 280 345 592 410 959 32 181 32 501 0 682
-69 385 -213 711 -442 999 -83 104 -278 295 -380 372 -279 211 -595 346 -955
408 -139 25 -430 34 -564 19z m-328 -275 c4 -4 -14 -18 -39 -31 -26 -14 -67
-39 -93 -57 -25 -18 -72 -48 -104 -67 -32 -19 -66 -38 -76 -44 -9 -5 -30 -22
-46 -37 -17 -16 -33 -28 -38 -28 -4 0 -41 -33 -81 -74 -90 -91 -140 -186 -103
-199 7 -2 -34 -52 -97 -118 -59 -63 -122 -133 -139 -156 -30 -42 -50 -53 -62
-33 -20 33 -114 -11 -186 -88 -64 -67 -89 -102 -131 -180 -17 -31 -39 -67 -48
-79 -10 -13 -37 -70 -61 -128 -23 -57 -44 -103 -46 -101 -6 6 46 193 77 275
16 44 44 118 61 164 17 45 52 127 79 182 67 137 69 145 80 249 11 111 16 117
143 146 106 25 165 54 357 175 155 98 395 211 480 225 63 11 66 11 73 4z m667
-626 c42 -21 45 -26 42 -57 -5 -46 -89 -282 -113 -316 -4 -5 -23 -50 -44 -100
-20 -49 -50 -117 -65 -150 -48 -102 -130 -312 -130 -332 0 -2 6 -3 14 -3 26 0
115 111 132 164 25 77 83 226 98 250 12 19 67 156 81 200 12 41 129 -10 142
-62 6 -26 -28 -119 -98 -269 -65 -138 -95 -243 -69 -243 5 0 25 14 44 31 28
24 40 47 56 102 28 97 39 123 104 258 31 64 62 141 69 170 10 36 20 55 35 60
29 11 84 -7 117 -37 24 -22 27 -31 22 -70 -2 -24 -3 -44 -1 -44 2 0 24 27 48
59 64 88 137 161 159 161 46 0 107 -62 107 -109 0 -23 -62 -179 -90 -226 -28
-47 -90 -221 -90 -252 l1 -28 32 36 c64 71 67 77 67 132 0 66 14 115 55 198
57 116 175 242 274 293 83 43 185 39 231 -9 27 -29 39 -119 21 -154 -10 -17
-9 -26 4 -43 19 -28 19 -83 0 -138 -8 -24 -13 -45 -11 -47 10 -10 172 181 213
250 52 87 76 108 101 84 14 -14 13 -20 -2 -62 -10 -25 -28 -58 -40 -73 -12
-15 -36 -47 -53 -72 -17 -25 -88 -102 -157 -172 -131 -131 -136 -139 -241
-360 -26 -55 -39 -77 -109 -188 -45 -72 -71 -104 -132 -167 -23 -24 -40 -43
-39 -43 2 0 25 9 52 21 55 24 92 21 158 -11 78 -38 85 -110 18 -207 -21 -31
-94 -109 -162 -174 -68 -66 -120 -119 -115 -119 5 0 38 5 74 10 85 13 147 3
177 -26 26 -26 29 -52 9 -80 -14 -19 -15 -19 -40 5 -34 32 -104 38 -200 17
-42 -10 -78 -21 -81 -27 -7 -11 -72 -12 -78 -1 -3 4 -8 28 -12 53 -7 45 -6 48
37 90 23 24 77 73 118 109 124 108 195 186 217 237 43 103 -34 121 -145 34
-53 -42 -82 -91 -82 -139 0 -17 -5 -34 -12 -38 -14 -9 -48 31 -48 57 0 38 33
115 62 146 l30 32 -43 -16 c-64 -22 -124 -10 -167 33 -31 31 -34 39 -29 76 3
22 9 44 14 47 4 3 20 24 35 46 33 49 189 198 331 318 22 18 21 18 -10 3 -65
-32 -154 -10 -184 45 -12 22 -12 23 -28 3 -9 -10 -38 -38 -64 -61 -41 -38 -52
-43 -96 -43 -41 0 -53 5 -79 31 -34 35 -46 81 -36 135 5 29 51 157 89 248 13
31 -8 12 -41 -36 -16 -24 -35 -49 -43 -57 -23 -25 -141 -208 -155 -242 -8 -20
-11 -44 -6 -64 11 -47 -4 -65 -50 -65 -29 0 -48 8 -73 30 l-34 30 -26 -30
c-35 -39 -98 -70 -141 -70 -38 0 -96 41 -96 67 0 9 -11 1 -27 -18 -35 -42
-110 -89 -141 -89 -30 0 -60 15 -98 51 l-30 29 -22 -29 c-12 -17 -43 -44 -69
-62 -63 -44 -124 -46 -176 -6 -37 28 -77 92 -77 122 0 19 -2 19 -48 -5 -21
-11 -58 -43 -82 -72 -25 -28 -58 -64 -75 -80 -34 -32 -121 -68 -166 -68 -37 0
-97 25 -126 52 l-23 22 -28 -26 c-41 -38 -115 -84 -157 -98 -20 -7 -64 -10
-97 -8 -53 4 -63 8 -99 44 -42 42 -79 127 -79 180 0 49 46 179 85 240 35 54
112 137 170 183 51 39 151 82 207 88 72 7 88 -7 97 -82 5 -51 8 -56 20 -42 7
10 28 17 46 17 27 0 37 7 61 41 35 51 135 120 188 130 52 10 111 -5 131 -34
28 -40 17 -222 -19 -302 -20 -44 -30 -82 -19 -70 6 6 24 46 42 90 45 115 78
166 161 250 91 94 173 138 259 139 36 0 65 -5 75 -13 9 -8 18 -12 20 -10 7 9
117 289 137 352 21 64 23 67 53 67 18 0 52 -10 76 -22z m261 -34 c13 -12 19
-31 19 -61 0 -38 -5 -49 -42 -86 -50 -50 -120 -76 -145 -55 -34 28 7 175 59
213 27 19 82 14 109 -11z m1195 -1250 c31 -30 29 -45 -21 -141 -94 -183 -107
-215 -93 -224 7 -5 16 -9 19 -9 17 0 49 -41 49 -62 0 -42 -23 -52 -62 -28 -46
28 -52 26 -65 -22 -9 -32 -9 -54 0 -86 10 -36 9 -45 -3 -52 -25 -16 -50 -11
-76 15 -23 23 -25 32 -22 90 4 77 6 76 -113 44 -86 -24 -109 -21 -109 15 0 18
11 31 48 52 78 46 266 255 348 386 34 56 61 62 100 22z m-1670 -200 c39 -19
42 -37 18 -101 -9 -24 -14 -46 -11 -49 6 -6 95 19 127 36 27 15 52 6 44 -15
-9 -22 -92 -63 -155 -76 -46 -10 -52 -15 -69 -52 -9 -23 -31 -72 -48 -109 -36
-76 -72 -183 -72 -210 0 -28 24 -22 69 20 36 32 44 48 61 116 21 81 41 115
114 190 74 76 201 113 226 65 29 -54 -71 -208 -188 -288 -26 -18 -32 -29 -30
-50 3 -22 7 -26 33 -23 40 4 81 35 144 107 39 44 49 61 37 63 -20 4 -20 15 1
55 9 18 19 67 23 110 9 95 30 131 81 135 19 2 43 -4 54 -12 18 -13 19 -17 6
-48 -7 -18 -21 -53 -30 -76 l-16 -44 35 -29 c38 -32 38 -33 -9 -163 -12 -32
-20 -63 -18 -69 6 -20 75 83 134 201 53 104 76 131 89 99 6 -17 -99 -219 -148
-283 -45 -60 -87 -82 -126 -68 -40 14 -56 56 -44 107 l11 42 -22 -30 c-65 -89
-129 -141 -203 -164 -49 -16 -74 -9 -118 29 l-33 29 -42 -44 c-53 -56 -98 -72
-140 -50 -17 8 -37 24 -43 35 -12 19 -14 19 -43 -9 -64 -61 -170 -92 -203 -59
-9 9 -17 7 -34 -9 -39 -36 -70 -38 -108 -7 -27 23 -34 25 -41 12 -4 -8 -26
-27 -48 -43 -47 -32 -91 -30 -121 7 l-18 23 -37 -38 c-27 -28 -44 -37 -69 -37
-75 0 -93 62 -52 175 14 38 24 71 22 72 -2 2 -16 -13 -32 -34 -15 -21 -31 -40
-34 -43 -3 -3 -23 -33 -43 -67 -27 -44 -37 -71 -35 -95 3 -30 0 -33 -26 -36
-41 -5 -76 31 -76 77 0 47 24 123 52 170 19 31 20 34 3 21 -36 -29 -156 -223
-155 -249 3 -46 0 -51 -27 -51 -39 1 -73 33 -80 74 -4 27 5 58 47 153 29 65
59 136 65 158 10 34 17 40 43 43 42 4 76 -29 70 -69 l-5 -29 31 37 c17 21 47
55 66 76 l35 39 33 -19 c35 -19 48 -49 38 -86 -4 -17 1 -14 22 13 66 86 95
111 121 108 15 -2 32 -14 42 -33 18 -30 17 -31 -22 -125 -47 -111 -79 -199
-79 -214 0 -6 13 3 29 20 19 22 30 45 34 80 13 115 102 244 201 294 84 42 141
36 165 -17 26 -57 2 -94 -34 -50 -11 15 -28 27 -37 27 -38 0 -125 -117 -158
-214 -19 -53 -27 -126 -14 -126 39 0 118 123 151 233 14 49 15 49 50 44 69
-12 72 -30 28 -132 -27 -61 -38 -105 -27 -105 4 0 31 37 59 83 49 80 50 84 31
96 -19 12 -19 13 6 56 14 24 26 58 26 76 0 42 35 113 67 139 14 11 41 20 59
20 18 0 36 5 39 10 3 6 42 10 86 10 57 0 79 4 79 13 0 7 9 28 19 48 11 20 24
55 31 77 12 47 17 49 66 26z"/>
<path d="M3320 3063 c-61 -64 -138 -198 -176 -307 -23 -67 -32 -160 -16 -170
4 -2 22 2 39 9 64 27 178 236 208 379 15 74 24 86 68 86 19 0 27 5 27 18 0 27
-20 42 -59 42 -30 0 -44 -9 -91 -57z"/>
<path d="M1858 2864 c-98 -82 -218 -328 -218 -451 0 -118 102 6 236 287 35 74
43 99 35 112 -7 12 -8 26 -1 43 21 57 8 59 -52 9z"/>
<path d="M1384 2828 c-84 -96 -144 -264 -118 -332 3 -9 16 -16 28 -16 17 0 29
13 49 54 40 81 68 197 65 262 l-3 56 -21 -24z"/>
<path d="M883 2748 c-47 -49 -101 -139 -147 -247 -45 -107 -61 -236 -30 -248
25 -9 85 14 145 57 l56 40 5 72 c5 62 20 120 53 201 5 12 2 17 -10 17 -13 0
-16 5 -11 23 3 12 9 48 13 80 8 74 -5 75 -74 5z"/>
<path d="M1096 2420 c-9 -22 -16 -58 -16 -80 0 -38 2 -40 31 -40 35 0 59 11
112 52 39 31 41 48 4 48 -13 0 -31 6 -42 13 -11 8 -32 22 -46 31 l-27 17 -16
-41z"/>
<path d="M3007 2268 c-126 -124 -163 -175 -143 -196 4 -3 28 5 53 18 33 17 63
47 105 106 55 74 133 204 124 204 -2 0 -65 -60 -139 -132z"/>
<path d="M3488 1808 c-32 -40 -55 -74 -53 -76 2 -3 15 -2 27 1 18 5 32 25 55
77 17 38 30 70 29 70 -1 0 -27 -32 -58 -72z"/>
<path d="M1784 1677 c-4 -12 -17 -36 -30 -53 -28 -36 -30 -67 -8 -109 9 -16
25 -50 35 -75 10 -25 18 -37 19 -28 0 10 11 41 24 70 13 29 38 86 54 126 l31
72 -27 0 c-15 0 -42 4 -59 9 -28 8 -33 7 -39 -12z"/>
<path d="M2268 1663 c-31 -34 -72 -98 -92 -147 l-15 -36 29 21 c39 29 120 149
120 178 0 18 -15 12 -42 -16z"/>
<path d="M1641 1401 c-8 -17 -27 -50 -43 -72 -47 -64 -15 -99 36 -39 29 35 43
92 29 122 -9 20 -10 19 -22 -11z"/>
</g>
</svg>
